<svg width="512" height="197" viewBox="0 0 512 197" fill="none" xmlns="http://www.w3.org/2000/svg">
<path d="M6.89337 173.487V182.612H17.6637V185.489H6.89337V196.709H3.34595V170.609H19.4922V173.487H6.89337Z" fill="#01CAB0"/>
<path d="M35.2842 187.019L31.1699 176.401C31.048 176.085 30.92 175.721 30.7859 175.308C30.6518 174.883 30.5238 174.434 30.4019 173.96C30.1459 174.944 29.8838 175.763 29.6157 176.419L25.5014 187.019H35.2842ZM42.6717 196.709H39.9288C39.6118 196.709 39.3558 196.63 39.1608 196.472C38.9658 196.314 38.8195 196.114 38.7219 195.871L36.2717 189.569H24.5139L22.0637 195.871C21.9905 196.09 21.8503 196.284 21.6431 196.454C21.4358 196.624 21.1798 196.709 20.8751 196.709H18.1322L28.6099 170.609H32.1939L42.6717 196.709Z" fill="#01CAB0"/>
<path d="M49.1177 196.709H45.5702V170.609H49.1177V196.709Z" fill="#01CAB0"/>
<path d="M72.9905 173.578H64.5059V196.709H60.9768V173.578H52.4739V170.609H72.9905V173.578Z" fill="#01CAB0"/>
<path d="M97.5599 170.609V196.709H94.0125V184.834H79.8776V196.709H76.3302V170.609H79.8776V182.247H94.0125V170.609H97.5599Z" fill="#01CAB0"/>
<path d="M144.038 183.668C144.038 185.623 143.727 187.402 143.106 189.005C142.484 190.607 141.606 191.98 140.472 193.121C139.339 194.262 137.973 195.149 136.376 195.78C134.792 196.399 133.036 196.709 131.11 196.709H121.327V170.609H131.11C133.036 170.609 134.792 170.925 136.376 171.556C137.973 172.175 139.339 173.062 140.472 174.215C141.606 175.357 142.484 176.729 143.106 178.331C143.727 179.934 144.038 181.713 144.038 183.668ZM140.399 183.668C140.399 182.065 140.18 180.632 139.741 179.37C139.302 178.107 138.68 177.038 137.876 176.164C137.071 175.29 136.096 174.622 134.95 174.16C133.804 173.699 132.524 173.468 131.11 173.468H124.875V193.85H131.11C132.524 193.85 133.804 193.619 134.95 193.157C136.096 192.696 137.071 192.034 137.876 191.172C138.68 190.298 139.302 189.229 139.741 187.966C140.18 186.704 140.399 185.271 140.399 183.668Z" fill="#01CAB0"/>
<path d="M155.86 183.249C156.884 183.249 157.786 183.128 158.566 182.885C159.358 182.63 160.017 182.278 160.541 181.828C161.077 181.367 161.479 180.821 161.748 180.189C162.016 179.558 162.15 178.86 162.15 178.095C162.15 176.54 161.638 175.369 160.614 174.579C159.59 173.79 158.054 173.396 156.006 173.396H152.129V183.249H155.86ZM167.965 196.709H164.82C164.174 196.709 163.698 196.46 163.393 195.962L156.591 186.637C156.384 186.345 156.158 186.139 155.914 186.018C155.683 185.884 155.317 185.817 154.817 185.817H152.129V196.709H148.6V170.609H156.006C157.664 170.609 159.096 170.779 160.303 171.119C161.51 171.447 162.503 171.926 163.284 172.558C164.076 173.189 164.661 173.954 165.039 174.853C165.417 175.739 165.606 176.735 165.606 177.84C165.606 178.762 165.46 179.625 165.167 180.426C164.874 181.227 164.448 181.95 163.887 182.593C163.338 183.225 162.662 183.765 161.857 184.214C161.065 184.664 160.163 185.004 159.151 185.234C159.602 185.489 159.992 185.86 160.321 186.345L167.965 196.709Z" fill="#01CAB0"/>
<path d="M174.528 196.709H170.98V170.609H174.528V196.709Z" fill="#01CAB0"/>
<path d="M201.984 170.609L191.306 196.709H188.124L177.445 170.609H180.279C180.596 170.609 180.852 170.688 181.047 170.846C181.242 171.003 181.389 171.204 181.486 171.447L188.874 189.861C189.032 190.274 189.184 190.723 189.331 191.209C189.489 191.694 189.629 192.204 189.751 192.738C189.873 192.204 190.001 191.694 190.135 191.209C190.269 190.723 190.416 190.274 190.574 189.861L197.943 171.447C198.016 171.24 198.157 171.052 198.364 170.882C198.583 170.7 198.845 170.609 199.15 170.609H201.984Z" fill="#01CAB0"/>
<path d="M221.048 193.831L221.029 196.709H204.883V170.609H221.029V173.487H208.43V182.156H218.634V184.925H208.43V193.831H221.048Z" fill="#01CAB0"/>
<path d="M246.671 170.609V196.709H244.898C244.617 196.709 244.38 196.66 244.184 196.563C244.002 196.466 243.819 196.302 243.636 196.072L228.477 176.401C228.501 176.704 228.52 177.002 228.532 177.293C228.544 177.585 228.55 177.858 228.55 178.113V196.709H225.442V170.609H227.27C227.429 170.609 227.563 170.621 227.672 170.645C227.782 170.657 227.88 170.688 227.965 170.736C228.05 170.773 228.136 170.833 228.221 170.918C228.306 170.991 228.398 171.088 228.495 171.21L243.654 190.862C243.63 190.547 243.605 190.243 243.581 189.952C243.569 189.648 243.563 189.363 243.563 189.096V170.609H246.671Z" fill="#01CAB0"/>
<path d="M287.05 173.578H278.566V196.709H275.037V173.578H266.534V170.609H287.05V173.578Z" fill="#01CAB0"/>
<path d="M306.555 193.831L306.536 196.709H290.39V170.609H306.536V173.487H293.938V182.156H304.141V184.925H293.938V193.831H306.555Z" fill="#01CAB0"/>
<path d="M328.773 191.318C328.968 191.318 329.138 191.397 329.285 191.555L330.693 193.066C329.62 194.305 328.316 195.27 326.78 195.962C325.256 196.654 323.409 197 321.239 197C319.362 197 317.655 196.679 316.119 196.035C314.583 195.379 313.273 194.469 312.188 193.303C311.103 192.125 310.261 190.717 309.664 189.078C309.067 187.438 308.768 185.635 308.768 183.668C308.768 181.701 309.079 179.898 309.701 178.259C310.322 176.619 311.194 175.211 312.316 174.033C313.449 172.855 314.802 171.944 316.375 171.301C317.948 170.645 319.685 170.317 321.586 170.317C323.452 170.317 325.097 170.615 326.524 171.21C327.95 171.805 329.205 172.612 330.29 173.632L329.12 175.253C329.047 175.375 328.949 175.478 328.828 175.563C328.718 175.636 328.565 175.672 328.37 175.672C328.151 175.672 327.883 175.557 327.566 175.326C327.249 175.083 326.834 174.816 326.322 174.525C325.81 174.233 325.17 173.972 324.402 173.742C323.634 173.499 322.69 173.377 321.568 173.377C320.215 173.377 318.978 173.614 317.856 174.088C316.735 174.549 315.765 175.223 314.949 176.109C314.144 176.996 313.516 178.076 313.065 179.351C312.614 180.626 312.389 182.065 312.389 183.668C312.389 185.295 312.62 186.746 313.084 188.021C313.559 189.296 314.199 190.377 315.004 191.263C315.82 192.137 316.777 192.805 317.874 193.267C318.984 193.728 320.178 193.959 321.458 193.959C322.239 193.959 322.94 193.916 323.561 193.831C324.195 193.734 324.774 193.588 325.298 193.394C325.835 193.2 326.329 192.957 326.78 192.666C327.243 192.362 327.7 192.004 328.151 191.591C328.358 191.409 328.565 191.318 328.773 191.318Z" fill="#01CAB0"/>
<path d="M355.487 170.609V196.709H351.94V184.834H337.805V196.709H334.257V170.609H337.805V182.247H351.94V170.609H355.487Z" fill="#01CAB0"/>
<path d="M382.867 170.609V196.709H381.093C380.813 196.709 380.575 196.66 380.38 196.563C380.197 196.466 380.014 196.302 379.832 196.072L364.673 176.401C364.697 176.704 364.715 177.002 364.728 177.293C364.74 177.585 364.746 177.858 364.746 178.113V196.709H361.637V170.609H363.466C363.624 170.609 363.758 170.621 363.868 170.645C363.978 170.657 364.075 170.688 364.161 170.736C364.246 170.773 364.331 170.833 364.417 170.918C364.502 170.991 364.593 171.088 364.691 171.21L379.85 190.862C379.825 190.547 379.801 190.243 379.777 189.952C379.765 189.648 379.758 189.363 379.758 189.096V170.609H382.867Z" fill="#01CAB0"/>
<path d="M413.228 183.668C413.228 185.623 412.917 187.42 412.295 189.059C411.673 190.686 410.796 192.089 409.662 193.267C408.528 194.444 407.163 195.361 405.566 196.017C403.981 196.66 402.226 196.982 400.3 196.982C398.373 196.982 396.618 196.66 395.033 196.017C393.449 195.361 392.089 194.444 390.956 193.267C389.822 192.089 388.944 190.686 388.322 189.059C387.701 187.42 387.39 185.623 387.39 183.668C387.39 181.713 387.701 179.922 388.322 178.295C388.944 176.656 389.822 175.247 390.956 174.069C392.089 172.879 393.449 171.957 395.033 171.301C396.618 170.645 398.373 170.317 400.3 170.317C402.226 170.317 403.981 170.645 405.566 171.301C407.163 171.957 408.528 172.879 409.662 174.069C410.796 175.247 411.673 176.656 412.295 178.295C412.917 179.922 413.228 181.713 413.228 183.668ZM409.589 183.668C409.589 182.065 409.369 180.626 408.93 179.351C408.492 178.076 407.87 177.002 407.065 176.128C406.261 175.241 405.285 174.561 404.14 174.088C402.994 173.614 401.714 173.377 400.3 173.377C398.898 173.377 397.624 173.614 396.478 174.088C395.332 174.561 394.351 175.241 393.534 176.128C392.729 177.002 392.108 178.076 391.669 179.351C391.23 180.626 391.01 182.065 391.01 183.668C391.01 185.271 391.23 186.71 391.669 187.985C392.108 189.248 392.729 190.322 393.534 191.209C394.351 192.083 395.332 192.757 396.478 193.23C397.624 193.692 398.898 193.922 400.3 193.922C401.714 193.922 402.994 193.692 404.14 193.23C405.285 192.757 406.261 192.083 407.065 191.209C407.87 190.322 408.492 189.248 408.93 187.985C409.369 186.71 409.589 185.271 409.589 183.668Z" fill="#01CAB0"/>
<path d="M432.621 193.74V196.709H417.754V170.609H421.284V193.74H432.621Z" fill="#01CAB0"/>
<path d="M458.988 183.668C458.988 185.623 458.677 187.42 458.055 189.059C457.433 190.686 456.556 192.089 455.422 193.267C454.288 194.444 452.923 195.361 451.326 196.017C449.741 196.66 447.986 196.982 446.06 196.982C444.133 196.982 442.378 196.66 440.793 196.017C439.209 195.361 437.849 194.444 436.716 193.267C435.582 192.089 434.704 190.686 434.082 189.059C433.461 187.42 433.15 185.623 433.15 183.668C433.15 181.713 433.461 179.922 434.082 178.295C434.704 176.656 435.582 175.247 436.716 174.069C437.849 172.879 439.209 171.957 440.793 171.301C442.378 170.645 444.133 170.317 446.06 170.317C447.986 170.317 449.741 170.645 451.326 171.301C452.923 171.957 454.288 172.879 455.422 174.069C456.556 175.247 457.433 176.656 458.055 178.295C458.677 179.922 458.988 181.713 458.988 183.668ZM455.349 183.668C455.349 182.065 455.129 180.626 454.69 179.351C454.252 178.076 453.63 177.002 452.825 176.128C452.021 175.241 451.045 174.561 449.9 174.088C448.754 173.614 447.474 173.377 446.06 173.377C444.658 173.377 443.384 173.614 442.238 174.088C441.092 174.561 440.111 175.241 439.294 176.128C438.489 177.002 437.868 178.076 437.429 179.351C436.99 180.626 436.77 182.065 436.77 183.668C436.77 185.271 436.99 186.71 437.429 187.985C437.868 189.248 438.489 190.322 439.294 191.209C440.111 192.083 441.092 192.757 442.238 193.23C443.384 193.692 444.658 193.922 446.06 193.922C447.474 193.922 448.754 193.692 449.9 193.23C451.045 192.757 452.021 192.083 452.825 191.209C453.63 190.322 454.252 189.248 454.69 187.985C455.129 186.71 455.349 185.271 455.349 183.668Z" fill="#01CAB0"/>
<path d="M484.799 184.16V194.177C483.482 195.124 482.074 195.835 480.575 196.308C479.088 196.77 477.454 197 475.674 197C473.566 197 471.664 196.679 469.969 196.035C468.275 195.379 466.824 194.469 465.617 193.303C464.423 192.125 463.502 190.717 462.856 189.078C462.21 187.438 461.887 185.635 461.887 183.668C461.887 181.677 462.198 179.861 462.82 178.222C463.453 176.583 464.349 175.18 465.508 174.015C466.666 172.837 468.074 171.926 469.732 171.283C471.39 170.639 473.242 170.317 475.29 170.317C476.327 170.317 477.29 170.396 478.18 170.554C479.07 170.7 479.892 170.918 480.648 171.21C481.404 171.489 482.105 171.835 482.751 172.248C483.397 172.649 484.001 173.104 484.561 173.614L483.556 175.217C483.397 175.46 483.19 175.618 482.934 175.69C482.69 175.751 482.416 175.69 482.111 175.508C481.818 175.338 481.483 175.132 481.105 174.889C480.727 174.646 480.264 174.415 479.716 174.197C479.179 173.966 478.539 173.772 477.796 173.614C477.064 173.456 476.193 173.377 475.181 173.377C473.706 173.377 472.371 173.62 471.176 174.106C469.981 174.579 468.964 175.265 468.122 176.164C467.281 177.05 466.635 178.131 466.184 179.406C465.733 180.669 465.508 182.09 465.508 183.668C465.508 185.307 465.739 186.777 466.202 188.076C466.678 189.363 467.348 190.462 468.214 191.372C469.092 192.271 470.152 192.957 471.396 193.431C472.639 193.904 474.035 194.141 475.583 194.141C476.802 194.141 477.881 194.007 478.82 193.74C479.77 193.461 480.697 193.078 481.599 192.593V186.855H477.521C477.29 186.855 477.101 186.789 476.954 186.655C476.82 186.522 476.753 186.358 476.753 186.163V184.16H484.799Z" fill="#01CAB0"/>
<path d="M498.911 186.309V196.709H495.363V186.309L485.763 170.609H488.872C489.189 170.609 489.439 170.688 489.622 170.846C489.804 170.991 489.963 171.186 490.097 171.428L496.095 181.573C496.314 181.998 496.515 182.399 496.698 182.776C496.881 183.14 497.039 183.51 497.174 183.887C497.308 183.51 497.46 183.14 497.631 182.776C497.801 182.399 497.99 181.998 498.198 181.573L504.177 171.428C504.287 171.222 504.439 171.034 504.634 170.864C504.829 170.694 505.079 170.609 505.384 170.609H508.511L498.911 186.309Z" fill="#01CAB0"/>
<path d="M0 144.429V2.55957H19.4418V144.429H0Z" fill="#01CAB0"/>
<path d="M122.657 104.109L76.546 52.3744V144.323H57.1042V0L122.453 70.8281L188.514 0V144.43H169.072V52.4811L122.657 104.109Z" fill="#01CAB0"/>
<path d="M295.494 2.77441L359.113 145.711H336.923L321.858 109.977C321.858 109.977 296.41 110.19 279.208 116.803C259.97 124.27 242.157 145.711 242.157 145.711H220.679L285.824 2.77441H295.494ZM313.206 91.4163L289.285 42.3486L261.802 105.603C267.197 102.403 268.622 101.016 278.496 96.9631C288.267 93.0163 313.206 91.4163 313.206 91.4163Z" fill="#01CAB0"/>
<path d="M404.612 2.77441L491.948 111.577V3.09441H512V145.711H492.355L414.384 46.402V145.711H394.942V2.77441H404.612Z" fill="#01CAB0"/>
</svg>
